<svg id="visual" viewBox="0 0 900 600" width="900" height="600" xmlns="http://www.w3.org/2000/svg" xmlns:xlink="http://www.w3.org/1999/xlink" version="1.1"><rect x="0" y="0" width="900" height="600" fill="#001122"></rect><path d="M0 475L21.5 475C43 475 86 475 128.8 478.8C171.7 482.7 214.3 490.3 257.2 482.8C300 475.3 343 452.7 385.8 442.7C428.7 432.7 471.3 435.3 514.2 443.5C557 451.7 600 465.3 642.8 463.3C685.7 461.3 728.3 443.7 771.2 429.3C814 415 857 404 878.5 398.5L900 393L900 601L878.5 601C857 601 814 601 771.2 601C728.3 601 685.7 601 642.8 601C600 601 557 601 514.2 601C471.3 601 428.7 601 385.8 601C343 601 300 601 257.2 601C214.3 601 171.7 601 128.8 601C86 601 43 601 21.5 601L0 601Z" fill="#cc640e" stroke-linecap="round" stroke-linejoin="miter"></path></svg>